<svg version="1.2" xmlns="http://www.w3.org/2000/svg" viewBox="0 0 464 168" width="464" height="168">
	<title>check_verification-svg</title>
	<defs>
		<clipPath clipPathUnits="userSpaceOnUse" id="cp1">
			<path d="m0-7h464v148h-464z"/>
		</clipPath>
		<clipPath clipPathUnits="userSpaceOnUse" id="cp2">
			<path d="m0-7h464v148h-464z"/>
		</clipPath>
	</defs>
	<style>
		tspan { white-space:pre } 
		.s0 { fill: #ffe297 } 
		.s1 { fill: #77b8d8 } 
		.s2 { fill: #f48184 } 
		.s3 { fill: #ffffff } 
		.s4 { fill: #ff6a68 } 
		.s5 { fill: #ac40a4 } 
		.s6 { fill: #f9eac3 } 
		.s7 { fill: #32abd8 } 
		.s8 { fill: #ff0000 } 
		.t9 { font-size: 24px;fill: #ffffff;font-weight: 700;font-family: "DejaVuSans-Bold", "DejaVu Sans" } 
		.t10 { font-size: 24px;fill: #ffffff;font-weight: 400;font-family: "DejaVuSans", "DejaVu Sans" } 
	</style>
	<g id="Clip-Path" clip-path="url(#cp1)">
		<g id="Layer">
			<g id="Clip-Path" clip-path="url(#cp2)">
				<g id="Layer">
					<path id="Layer" fill-rule="evenodd" class="s0" d="m1.3 138.8c2-0.6 5.7 0.1 7.7-0.1 0.5-0.1 1.4-0.6 1.6-0.1 0.2 0.2-1.2 1.6-1.2 1.6-1 1.2-1.5 2.6-1.7 4-0.5 2.6 0.6 4.3 3.6 5.6 0.3 0.1 1.5 0.2 1.7 0.3 0.6 0.5-0.8 1.3-1.1 1.5-1.2 0.9-3.4 1.9-5.3 1.6-1.1-0.2-2.3-3.1-2.7-3.7-1.3-2-6.2-9.7-2.6-10.7z"/>
					<path id="Layer" fill-rule="evenodd" class="s1" d="m59.1 117.2c3.2-2.7-1.6-4.4-4.7-3.5-5.8 1.6-3.2 8.8 1.2 10.3 2.7 0.9 5.1 0 6.9-1.6 0.2-0.2 2.2-2.5 1.1-2.8-0.7-0.2-1.6 1.8-1.9 2.1-1.6 1.5-5.1 1.9-6.7 0.1-1.5-1.6-1.4-7.1 2.7-6.4 1.1 0.2 0.8 2.4 1.4 1.8z"/>
					<path id="Layer" fill-rule="evenodd" class="s2" d="m101.1 126.1c-1.2-0.8-3.6 2.4-3 3.7 1.4 3.1 4.8 6 8.5 7.7 0.6 0.3 4.6 1.6 5.3 1.3 0.1-0.1 0.1-1.5 0-1.6-2.7-2.1-6.1-2.1-8.2-5.1-1.2-1.9-0.5-4.6-2.6-6z"/>
					<path id="Layer" fill-rule="evenodd" class="s1" d="m217.7 146.2c-0.4 0.7-2.6 0-3.3-0.2-0.6 0-2.1 0.4-2-0.1 0.3-0.7 1.8-1.4 2.3-2.1 0.7-1 1.1-2 1.4-3 0.1-0.3-0.1-1.2 0.3-1.4 0.7-0.3 1.7 0.2 2.3 0.2 0.2 0.1 1 0.1 1.2 0.2 0.2 0.4-0.6 1.4-0.6 1.8-0.5 1.6-0.7 3.2-1.6 4.6z"/>
					<path id="Layer" fill-rule="evenodd" class="s3" d="m140.6 132.3c3.6-1 1.3-4.5-2.2-4.1-8.6 0.9-4.8 7.6 0.5 9.7 6.8 2.8 14.7-5.1 10.3-9.8-0.6-0.7-1.6-1.6-2.8-1.8-0.6-0.1-2.5-0.7-2.1-0.2 0.5 0.5 1.6 0.6 2.1 1.1 2.4 2.4 1.2 9.1-3.5 9.5-3.5 0.3-10.1-4-5.2-6.1 0.9-0.3 1.4 2.1 2.9 1.7z"/>
					<path id="Layer" fill-rule="evenodd" class="s4" d="m343.6 25.9c5.6 0.4 8.4-9.7 1.6-10.4-3.9-0.4-7.6 4.9-3.7 6.4 1.4 0.5 4.8-1.4 3.5-2.3-0.4-0.3-2 1.9-2.7-0.3-0.4-1.4 2.3-3.3 3.8-2.1 2.1 1.7 0.1 5.1-1.4 6.3-0.7 0.6-2.2 2.3-1.1 2.4z"/>
					<path id="Layer" fill-rule="evenodd" class="s0" d="m375.6 29.9c2.5-2.1-1.3-3.5-3.8-2.8-4.5 1.3-2.6 7.1 1 8.2 2.2 0.7 4 0 5.4-1.3 0.1-0.1 1.7-1.9 0.8-2.1-0.6-0.1-1.2 1.5-1.4 1.7-1.3 1.1-4.1 1.4-5.4 0.1-1.2-1.3-1.2-5.6 2.2-5.1 0.8 0.1 0.6 1.8 1.2 1.3z"/>
					<path id="Layer" fill-rule="evenodd" class="s0" d="m382.6 57.6c0.1-1 2.3-1.2 3.6-1.2 0 0 0 2.8 0 3 0 1.8 1.1 5.1-1.7 5.6-0.2 0.1-1 0.5-1.3 0.4-0.7-0.3 0.1-1.3 0.1-2 0.3-1.8-0.9-4-0.7-5.8z"/>
					<path id="Layer" fill-rule="evenodd" class="s2" d="m414.9 19.7c-1-0.7-2.9 1.9-2.4 2.9 1.1 2.5 3.9 4.7 6.8 6.1 0.4 0.2 3.6 1.2 4.1 1 0.1 0 0.1-1.2 0-1.2-2.2-1.7-4.8-1.6-6.4-4.1-1-1.5-0.5-3.6-2.1-4.7z"/>
					<path id="Layer" fill-rule="evenodd" class="s5" d="m447.3 29.3c-1.4-0.2-1 1.1-1.7 1.9-0.7 0.8-2.9 1.6-3.3 2.2-0.3 0.4 1 1.6 1.4 1.6 0.3 0.1 1.8-1 2-1.1 1.5-1.1 4.6-4.4 1.6-4.6z"/>
					<path id="Layer" fill-rule="evenodd" class="s3" d="m344.3 54.2c0-0.6-0.1-1.5 0.6-1.5 2.5-0.1 3.1 1.1 3.1 2.4 0 0.8-2 1.7-3 1.1-0.7-0.3-0.7-1.5-0.7-2z"/>
					<path id="Layer" fill-rule="evenodd" class="s3" d="m400.6 2c-0.1-0.6 2-0.9 2.7-1.2 0.5-0.2 1.3-1.1 1.4-0.7 0.3 0.6-0.3 1.7-0.2 2.4 0 1 0.4 2 0.9 2.8 0.1 0.3 0.9 0.9 0.7 1.2-0.4 0.4-1.4 0.4-1.9 0.6-0.2 0.1-0.8 0.4-1 0.3-0.5-0.2-0.5-1.2-0.7-1.5-0.7-1.2-1.6-2.5-1.9-3.9z"/>
					<path id="Layer" fill-rule="evenodd" class="s1" d="m432.2 59c-2 2.1 1.9 3.7 4.2 2.1 5.8-4-1.3-7.5-6.6-7-6.7 0.6-7.5 9.4-1.3 11.2 0.9 0.3 2.3 0.6 3.2 0.3 0.6-0.2 2.3-0.5 1.7-0.7-0.7-0.2-1.6 0.2-2.2 0-3.3-0.8-6.7-6.2-3.5-8.3 2.3-1.6 10-1 7.7 2.4-0.4 0.7-2.4-0.9-3.2 0z"/>
					<path id="Layer" fill-rule="evenodd" class="s4" d="m391.8 145.9c-4.5 2.6-13.8-5-8.4-8.3 3.1-1.9 9.8 1.1 7.4 4-0.8 1-4.9 0.8-4.5-0.6 0.1-0.4 2.9 0.8 2.1-1.3-0.5-1.3-4.1-1.9-4.7-0.2-0.7 2.3 3.4 4.5 5.5 4.9 1 0.2 3.4 1 2.6 1.5z"/>
					<path id="Layer" fill-rule="evenodd" class="s0" d="m395.8 91.3c-3.6-0.8-1.2-3.6 1.4-4 4.8-0.7 6.9 5 4.7 7.4-1.4 1.5-3.5 1.7-5.6 1.1-0.3 0-2.8-1-2.2-1.5 0.4-0.4 2.1 0.7 2.4 0.8 1.9 0.5 4.5-0.4 4.6-2 0.2-1.7-2.7-5.4-5.3-3.6-0.6 0.6 0.8 2 0 1.8z"/>
					<path id="Layer" fill-rule="evenodd" class="s6" d="m417.8 141.7c-0.7-0.8-2.8-0.1-3.8 0.5 0 0 1.8 2.4 2 2.5 1.2 1.7 2.5 4.8 5.2 4.2 0.3-0.1 1.3 0 1.4-0.2 0.5-0.5-0.9-1.1-1.5-1.6-1.4-1.5-1.9-3.9-3.3-5.4z"/>
					<path id="Layer" fill-rule="evenodd" class="s2" d="m385.9 111.7c0.4-1 3.7 0.5 4 1.5 0.7 2.6-0.1 5.7-1.7 8-0.3 0.4-2.3 2.6-2.9 2.6-0.1 0-0.8-1-0.8-1.1 0.7-2.3 3.1-3.3 2.8-6.2-0.2-1.6-2.1-3.2-1.4-4.8z"/>
					<path id="Layer" fill-rule="evenodd" class="s6" d="m414.7 118.5c-2.3 0.3-1.3 2.3 0.9 2.3 1.6 0 1.3-2.5-0.9-2.3z"/>
					<path id="Layer" fill-rule="evenodd" class="s3" d="m467.5 124.6c-0.4-0.4-1-1.3-1.5-1-2.3 1-1.9 2.2-1.1 3.3 0.6 0.7 2.9 0.6 3.4-0.2 0.3-0.6-0.4-1.7-0.8-2.1z"/>
					<path id="Layer" fill-rule="evenodd" class="s3" d="m351.3 114.5c-3 0.5-3.2-2.6-0.7-3.4 6.5-2.2 7.5 3.6 5 6.8-3.3 4-12.9 1.1-12.4-3.4 0.1-0.8 0.2-1.6 0.9-2.2 0.4-0.2 1.4-1.2 1.4-0.8-0.1 0.5-0.8 0.9-0.9 1.4-0.3 2.4 4 6.6 7.4 5.4 2.6-0.9 4.8-5.9 0.4-5.8-0.8 0 0.2 1.8-1.1 2z"/>
					<path id="Layer" fill-rule="evenodd" class="s4" d="m309.3 4.5c-4.5 0.9-2.7 9.4 2.8 8.3 3.2-0.6 4-5.5 0.3-5.7-1.2-0.1-3.1 2.1-1.8 2.6 0.4 0.1 0.8-1.9 2.2-0.4 0.8 0.9-0.5 3-2.2 2.5-2.2-0.8-2-3.9-1.2-5.3 0.2-0.6 0.8-2.2-0.1-2z"/>
					<path id="Layer" fill-rule="evenodd" class="s0" d="m194.4 98.8c-1.2 2.2 2.3 2.4 4 1.2 3-2-0.7-6-3.9-6.1-1.9 0-3.1 1-3.7 2.3-0.1 0.2-0.6 1.9 0.2 1.9 0.5 0 0.4-1.4 0.5-1.6 0.5-1.2 2.6-2.1 4.1-1.4 1.4 0.8 3 4.1 0.3 4.5-0.8 0.1-1.3-1.2-1.5-0.8z"/>
					<path id="Layer" fill-rule="evenodd" class="s0" d="m125.6 112.6c0.3 0.8-1.3 1.5-2.3 1.7 0 0-1.1-2.1-1.2-2.2-0.7-1.5-2.8-3.7-0.9-4.8 0.2 0 0.7-0.6 0.9-0.6 0.6 0.1 0.4 1 0.6 1.6 0.5 1.4 2.3 2.8 2.9 4.3z"/>
					<path id="Layer" fill-rule="evenodd" class="s2" d="m179.9 74.8c1 0.2 1.4-2.2 0.7-2.9-1.8-1.6-4.8-2.8-7.6-3.2-0.5 0-3.3-0.1-3.6 0.2-0.1 0 0.4 0.9 0.4 1 2.4 0.8 4.4 0.1 6.6 1.6 1.3 1 1.7 2.8 3.5 3.3z"/>
					<path id="Layer" fill-rule="evenodd" class="s3" d="m134.5 81c0.1 0.4 0.6 1.2 0.1 1.3-1.9 0.6-2.8-0.1-3.4-1.1-0.3-0.6 1-1.8 1.9-1.6 0.7 0.1 1.2 1 1.4 1.4z"/>
					<path id="Layer" fill-rule="evenodd" class="s1" d="m148.2 49.9c0.4 0.4-1.2 1.2-1.6 1.5-0.3 0.3-0.5 1.2-0.9 0.9-0.4-0.4-0.4-1.4-0.7-2-0.4-0.7-1.1-1.4-1.8-1.9-0.2-0.1-1-0.5-0.9-0.7 0-0.4 0.8-0.7 1.2-1 0.1 0 0.4-0.4 0.6-0.4 0.4 0 0.9 0.8 1.1 1 1.1 0.8 2.2 1.6 3 2.6z"/>
					<path id="Layer" fill-rule="evenodd" class="s3" d="m96.3 89.1c0.8-2.1-2.9-2.4-4.1-0.6-2.9 4.4 4 5.5 7.9 3.9 5-2.1 2.2-9-3.4-9-0.8 0-1.9 0-2.5 0.5-0.4 0.3-1.6 0.9-1.1 0.9 0.6 0 1.1-0.5 1.7-0.6 2.9-0.1 7.7 3.3 6 5.7-1.3 1.7-7.4 3-7-0.2 0.2-0.5 2.3 0.3 2.5-0.6z"/>
					<path id="Layer" fill-rule="evenodd" class="s1" d="m198.7 38.5c-0.6-0.6-2.5 1-2.3 1.8 0.2 2 1.7 3.9 3.5 5.3 0.3 0.2 2.4 1.3 2.8 1.3 0.1 0 0.4-0.9 0.3-1-1.2-1.4-3.1-1.8-3.8-3.7-0.5-1.2 0.4-2.7-0.5-3.7z"/>
					<path id="Layer" fill-rule="evenodd" class="s1" d="m136.2 7.4c0.6-1.1 3.3-0.7 4.8-0.1 0 0-1.6 3.3-1.7 3.5-1.2 2.2-1.7 6.3-5.3 6-0.3 0-1.6 0.2-1.8 0-0.7-0.6 0.9-1.4 1.4-2.2 1.4-2 1.3-5 2.6-7.2z"/>
					<path id="Layer" fill-rule="evenodd" class="s5" d="m59.4 53.9c-1.5-0.6-1.8 1-3.1 1.7-1.2 0.6-4.3 0.8-5.1 1.4-0.6 0.4 0.4 2.2 0.8 2.4 0.3 0.2 2.8-0.6 3-0.6 2.2-0.8 7.9-3.5 4.4-4.9z"/>
					<path id="Layer" fill-rule="evenodd" class="s1" d="m111.7 37.2c3-2.9 5.6 1.4 3.2 2.7-2.1 1.1-4.2-1.7-3.2-2.7z"/>
					<path id="Layer" fill-rule="evenodd" class="s3" d="m84.5 19.2c0.2-0.8 2.9-0.4 3.8-0.5 0.7-0.1 2.1-0.8 2.1-0.3 0 0.9-1.4 1.9-1.7 2.8-0.5 1.1-0.5 2.4-0.5 3.6 0 0.3 0.4 1.3 0 1.6-0.6 0.5-1.8 0.1-2.5 0.1-0.3 0-1.2 0.2-1.4 0-0.4-0.3 0.1-1.6 0.1-2 0-1.8-0.3-3.6 0.1-5.3z"/>
					<path id="Layer" fill-rule="evenodd" class="s3" d="m199.9-0.2c-3.6 1.8 0 5.1 3.7 4 9.2-2.7 2.9-9.4-3.7-10.6-8.3-1.6-14.4 8.5-8.1 12.7 1 0.7 2.3 1.5 3.6 1.4 0.8 0 3 0.2 2.4-0.2-0.7-0.4-1.9-0.3-2.6-0.7-3.4-2.1-4.3-9.7 0.7-11.1 3.7-1 12.3 2.4 7.8 5.6-1 0.8-2.4-1.8-3.8-1.1z"/>
					<path id="Layer" fill-rule="evenodd" class="s1" d="m258.4 34.3c-1.4-0.8-2.8-3.2-4-4.2-0.3-0.3-1.2-0.5-1-0.9 0.1-0.2 2.2-0.1 2.2-0.1 1.7-0.1 3.2-0.6 4.7-1.2 2.7-1.1 3.8-2.5 3.5-4.8 0-0.3-0.6-1-0.5-1.1 0.1-0.5 1.6-0.2 1.9-0.1 1.5 0.2 3.6 0.8 4.2 2 0.4 0.8-1.8 3-2.1 3.4-1.3 1.9-6.1 8.5-8.9 7z"/>
					<path id="Layer" fill-rule="evenodd" class="s0" d="m257.4 3.3c-4.2-0.4-3.4 3.2-0.9 4.5 4.4 2.4 10-2.7 9.1-6-0.5-2-2.6-2.8-5.1-3-0.2 0-3.4 0.1-3.1 0.8 0.2 0.5 2.5-0.1 2.9 0 2.2 0.1 4.4 1.9 3.6 3.7-0.8 1.7-5.9 4.4-7.4 1.8-0.5-0.8 1.7-1.7 0.9-1.8z"/>
					<path id="Layer" fill-rule="evenodd" class="s7" d="m247.4 85.7c0.7 1 2 0 3.3 0 1.4 0 3.8 1 4.7 0.9 0.7-0.1 1.2-1.8 1-2.2-0.1-0.2-2.4-0.6-2.6-0.6-2.2-0.3-8.1-0.4-6.4 1.9z"/>
					<path id="Layer" fill-rule="evenodd" class="s0" d="m234.1 13.4c-2.1-1-0.1-2.7 2.2-2 1.5 0.6-0.1 3-2.2 2z"/>
					<path id="Layer" fill-rule="evenodd" class="s3" d="m215.9 43.5c0 0-0.2-2.5-1.4-3.9-1.2-1.4-3.3-1.8-3.3-1.8 0 0 1.8-0.2 3-1.6 1.2-1.4 1.7-3.8 1.7-3.8 0 0 0.3 2.6 1.4 4 1.1 1.4 3.1 1.6 3.1 1.6 0 0-2.1 0.2-3.2 1.5-1.2 1.4-1.3 4-1.3 4z"/>
					<path id="Layer" fill-rule="evenodd" class="s3" d="m244.4 70.9c0 0-0.3-3.2-1.8-5-1.5-1.8-4.2-2.2-4.2-2.2 0 0 2.3-0.4 3.8-2.2 1.5-1.7 2.3-4.9 2.3-4.9 0 0 0.3 3.4 1.8 5.2 1.4 1.8 3.9 2 3.9 2 0 0-2.6 0.2-4.1 2-1.4 1.8-1.7 5.1-1.7 5.1z"/>
					<path id="Layer" fill-rule="evenodd" class="s3" d="m197.5 25.9c0 0-0.2-1.6-0.9-2.6-0.8-0.9-2.2-1.1-2.2-1.1 0 0 1.2-0.2 2-1.1 0.8-1 1.1-2.6 1.1-2.6 0 0 0.2 1.8 1 2.7 0.7 0.9 2 1.1 2 1.1 0 0-1.4 0.1-2.1 1-0.8 0.9-0.9 2.6-0.9 2.6z"/>
					<path id="Layer" fill-rule="evenodd" class="s1" d="m256.9 116.3c0.6-1.1 3.4-0.6 4.8-0.1 0 0-1.6 3.3-1.7 3.5-1.1 2.3-1.7 6.3-5.2 6.1-0.4 0-1.6 0.2-1.8 0-0.8-0.6 0.8-1.5 1.3-2.2 1.4-2.1 1.3-5.1 2.6-7.3z"/>
					<path id="Layer" fill-rule="evenodd" class="s3" d="m205.2 128.1c0.2-0.8 2.9-0.4 3.8-0.5 0.7 0 2.1-0.8 2.1-0.2-0.1 0.8-1.4 1.9-1.7 2.7-0.5 1.2-0.6 2.4-0.6 3.6 0 0.4 0.5 1.4 0.1 1.6-0.6 0.5-1.8 0.2-2.6 0.2-0.2 0-1.1 0.1-1.4 0-0.4-0.4 0.2-1.6 0.2-2 0-1.8-0.4-3.6 0.1-5.4z"/>
					<path id="Layer" fill-rule="evenodd" class="s3" d="m299 146.2c-3.6 1.8 0.1 5.1 3.7 4 9.2-2.8 2.9-9.4-3.6-10.6-8.4-1.7-14.4 8.4-8.2 12.7 1 0.7 2.3 1.5 3.7 1.4 0.8 0 3 0.2 2.4-0.2-0.7-0.4-2-0.3-2.6-0.7-3.4-2.1-4.4-9.7 0.6-11.1 3.7-1 12.4 2.3 7.8 5.6-0.9 0.7-2.3-1.9-3.8-1.1z"/>
					<path id="Layer" fill-rule="evenodd" class="s4" d="m310.2 109.1c-2.7-3.8-9.7 1.4-6.5 6 1.9 2.6 6.7 1.4 5.4-2.1-0.4-1.1-3.2-2-3-0.6 0 0.5 2-0.1 1.2 1.8-0.5 1.2-2.9 0.8-3.1-0.9-0.2-2.4 2.7-3.5 4.2-3.4 0.6 0.2 2.3-0.1 1.8-0.8z"/>
					<path id="Layer" fill-rule="evenodd" class="s1" d="m262.2 74.8c0.1-1.7 1.7-3.9 2.2-5.5 0.1-0.4-0.1-1.2 0.3-1.2 0.2 0 1 1.9 1 1.9 0.8 1.5 1.8 2.7 2.9 3.8 2.2 2 3.9 2.4 5.9 1.2 0.2-0.1 0.6-0.9 0.8-0.9 0.5-0.1 0.9 1.4 0.9 1.7 0.5 1.4 0.7 3.6-0.1 4.7-0.5 0.7-3.4-0.4-4-0.5-2.1-0.4-10.2-2.1-9.9-5.2z"/>
					<path id="Layer" fill-rule="evenodd" class="s0" d="m289.8 61c-1.4-4-4.3-1.8-4.5 1-0.3 5.1 6.6 8.1 9.2 5.9 1.6-1.4 1.5-3.6 0.7-5.9-0.1-0.3-1.5-3.2-2.1-2.6-0.4 0.4 1.1 2.3 1.3 2.7 0.7 2.1 0 4.8-1.9 4.8-1.9 0-6.5-3.6-4.7-6.1 0.5-0.6 2.2 1 2 0.2z"/>
					<path id="Layer" fill-rule="evenodd" class="s4" d="m373.5 54.6c-4.5 1-2.7 9.5 2.8 8.4 3.2-0.6 4-5.5 0.3-5.8-1.2 0-3.1 2.2-1.8 2.6 0.4 0.2 0.8-1.8 2.2-0.4 0.8 1-0.5 3-2.2 2.5-2.2-0.7-2-3.9-1.2-5.2 0.2-0.6 0.8-2.3-0.1-2.1z"/>
					<path id="Layer" fill-rule="evenodd" class="s1" d="m322.6 84.4c-1.5-0.8-2.8-3.2-4-4.2-0.3-0.2-1.2-0.4-1-0.8 0.1-0.2 2.1-0.2 2.2-0.2 1.7-0.1 3.2-0.5 4.7-1.1 2.7-1.1 3.7-2.5 3.5-4.9 0-0.3-0.6-0.9-0.5-1.1 0.1-0.5 1.5-0.2 1.9-0.1 1.5 0.2 3.6 0.9 4.2 2.1 0.4 0.7-1.8 2.9-2.2 3.4-1.2 1.7-6.1 8.5-8.8 6.9z"/>
					<path id="Layer" fill-rule="evenodd" class="s0" d="m321.5 53.5c-4.1-0.4-3.4 3.2-0.8 4.5 4.4 2.4 9.9-2.8 9.1-6.1-0.6-2-2.6-2.8-5.1-3-0.2 0-3.4 0.1-3.1 0.8 0.2 0.6 2.5 0 2.9 0 2.2 0.2 4.4 2 3.6 3.7-0.8 1.8-5.9 4.5-7.4 1.8-0.5-0.7 1.6-1.6 0.8-1.7z"/>
					<path id="Layer" fill-rule="evenodd" class="s4" d="m99 72.9c-4.5 0.9-2.7 9.4 2.8 8.3 3.2-0.6 4-5.4 0.3-5.7-1.2-0.1-3.1 2.1-1.8 2.6 0.4 0.1 0.8-1.9 2.2-0.4 0.8 0.9-0.5 3-2.2 2.5-2.2-0.8-2-3.9-1.2-5.2 0.3-0.6 0.8-2.3-0.1-2.1z"/>
					<path id="Layer" fill-rule="evenodd" class="s1" d="m28.7 116.8c-1.5-0.9-2.8-3.3-4-4.3-0.3-0.2-1.2-0.4-1-0.8 0.1-0.2 2.1-0.2 2.2-0.2 1.7-0.1 3.2-0.5 4.7-1.1 2.7-1.1 3.8-2.5 3.5-4.9 0-0.2-0.6-0.9-0.5-1.1 0.1-0.5 1.6-0.2 1.9-0.1 1.5 0.2 3.6 0.9 4.2 2.1 0.4 0.7-1.8 2.9-2.2 3.4-1.2 1.7-6 8.4-8.8 7z"/>
					<path id="Layer" fill-rule="evenodd" class="s0" d="m27.6 85.7c-4.1-0.4-3.3 3.2-0.8 4.5 4.4 2.4 9.9-2.7 9.1-6-0.5-2-2.6-2.8-5.1-3-0.2 0-3.4 0-3.1 0.8 0.2 0.5 2.5-0.1 2.9 0 2.2 0.1 4.4 1.9 3.6 3.7-0.8 1.7-5.9 4.4-7.4 1.8-0.5-0.7 1.7-1.6 0.8-1.8z"/>
				</g>
			</g>
			<path id="Layer" class="s8" d="m232 117c-19.9 0-36-16.1-36-36 0-19.9 16.1-36 36-36 19.9 0 36 16.1 36 36 0 19.9-16.1 36-36 36z"/>
			<text id="" style="transform: matrix(1,0,0,1,377,176)" >
			</text>
			<path id="Layer" class="s8" d="m200 81c0-17.7 14.3-32 32-32 17.7 0 32 14.3 32 32 0 17.7-14.3 32-32 32-17.7 0-32-14.3-32-32z"/>
			<text id="X" style="transform: matrix(1.347,0,0,1.109,220.142,90.934)" >
				<tspan x="0" y="0" class="t9">X</tspan><tspan  y="0" class="t10">
</tspan>
			</text>
			<text id="" style="transform: matrix(1,0,0,1,345,61.429)" >
			</text>
		</g>
		<text id="" style="transform: matrix(1,0,0,1,359,94)" >
		</text>
	</g>
</svg>